<svg width="125" height="132" viewBox="0 0 125 132" fill="none" xmlns="http://www.w3.org/2000/svg">
<path fill-rule="evenodd" clip-rule="evenodd" d="M80.6642 20.6529L63.4205 0L46.2066 19.4219L62.8698 8.55874L80.6642 20.6529Z" fill="#6E4D8B"/>
<path fill-rule="evenodd" clip-rule="evenodd" d="M14.8052 42.3606L13.9933 57.4364L0 67.1993L0.811823 52.1231L14.8052 42.3606Z" fill="#6E4D8B"/>
<path fill-rule="evenodd" clip-rule="evenodd" d="M14.8051 42.3606L13.9933 57.4364L0.811798 52.1231L14.8051 42.3606Z" fill="#3B2C4B"/>
<path fill-rule="evenodd" clip-rule="evenodd" d="M61.1523 123.928L47.577 117.321L32.2499 124.817L45.8252 131.424L61.1523 123.928Z" fill="#6E4D8B"/>
<path fill-rule="evenodd" clip-rule="evenodd" d="M47.577 117.321L32.2499 124.817L45.8252 131.424L47.577 117.321Z" fill="#3B2C4B"/>
<path fill-rule="evenodd" clip-rule="evenodd" d="M112.664 77.1553L122.87 102.05L97.6562 108.197L115.045 98.5383L112.664 77.1553Z" fill="#3B2C4B"/>
<path fill-rule="evenodd" clip-rule="evenodd" d="M122.87 102.05L97.6562 108.197L115.045 98.5383L122.87 102.05Z" fill="#6E4D8B"/>
<path fill-rule="evenodd" clip-rule="evenodd" d="M114.705 26.6566L123.427 32.1309L124.849 43.488L111.758 51.3774L110.991 40.5078L101.615 34.546L114.705 26.6566Z" fill="#6E4D8B"/>
<path fill-rule="evenodd" clip-rule="evenodd" d="M114.705 26.6566L123.427 32.1309L110.991 40.5078L101.615 34.546L114.705 26.6566Z" fill="#3B2C4B"/>
<path fill-rule="evenodd" clip-rule="evenodd" d="M62.8569 11.2887L109.2 41.8866L112.527 97.3202L66.1844 66.7219L62.8569 11.2887Z" fill="#00AFEF"/>
<path fill-rule="evenodd" clip-rule="evenodd" d="M112.677 97.4313L63.0066 122.267L13.3364 97.4313L63.0066 72.5964L112.677 97.4313Z" fill="#A8CF45"/>
<path fill-rule="evenodd" clip-rule="evenodd" d="M62.835 11.1035L16.492 41.7014L13.1648 97.1346L59.5075 66.5367L62.835 11.1035Z" fill="#6E4D8B"/>
<path fill-rule="evenodd" clip-rule="evenodd" d="M62.8354 11.1031L16.4923 41.7014L59.5079 66.5367L62.8354 11.1031Z" fill="#3B2C4B"/>
<path fill-rule="evenodd" clip-rule="evenodd" d="M63.0066 122.267L13.3364 97.4313L63.0066 72.5964V122.267Z" fill="#80C04D"/>
<path fill-rule="evenodd" clip-rule="evenodd" d="M62.8569 11.2887L109.2 41.8866L66.1844 66.7219L62.8569 11.2887Z" fill="#0098DA"/>
<path fill-rule="evenodd" clip-rule="evenodd" d="M63.4205 0L46.2066 19.4219L62.8698 8.55874L63.4205 0Z" fill="#3B2C4B"/>
</svg>
