<svg width="349" height="72" viewBox="0 0 349 72" fill="none" xmlns="http://www.w3.org/2000/svg">
<path d="M66.2079 64.0169V42.6293H77.4852V44.9624H68.7504V51.0943H77.4852V53.4577H68.7504V61.6539H77.4852V64.0169H66.2079ZM91.7832 57.4061C91.7832 55.9155 91.3693 54.7136 90.5416 53.8069C89.7139 52.8941 88.622 52.4406 87.2663 52.4406C85.9151 52.4406 84.8583 52.8548 84.1005 53.6821C83.3374 54.5095 82.9587 55.6513 82.9587 57.1121C82.9587 58.7569 83.3427 60.0484 84.1104 60.9759C84.8833 61.9079 85.9453 62.3713 87.2961 62.3713C88.7021 62.3713 89.7989 61.9329 90.5915 61.0552C91.3841 60.1833 91.7832 58.9618 91.7832 57.4061ZM93.9968 41.373V64.0169H91.7832V61.5987C91.2544 62.561 90.5764 63.2988 89.7392 63.8124C88.9017 64.3257 87.9643 64.5849 86.9321 64.5849C85.0129 64.5849 83.4671 63.9273 82.2958 62.606C81.1245 61.2847 80.536 59.54 80.536 57.3664C80.536 55.1777 81.1094 53.4278 82.261 52.1265C83.4074 50.8203 84.9377 50.1672 86.8475 50.1672C87.9541 50.1672 88.9213 50.4166 89.7392 50.9201C90.5567 51.4235 91.2143 52.1764 91.7234 53.1685V41.373H93.9968ZM100.812 50.6457V57.2266C100.812 59.1458 101.096 60.4872 101.664 61.2548C102.237 62.0175 103.195 62.4015 104.551 62.4015C105.902 62.4015 106.859 62.0224 107.422 61.2699C107.981 60.5117 108.26 59.1659 108.26 57.2266V50.6457H110.593V58.4531C110.593 60.4672 110.08 61.9926 109.048 63.0297C108.016 64.0664 106.495 64.5849 104.491 64.5849C102.507 64.5849 100.996 64.0664 99.964 63.0248C98.9325 61.9831 98.4189 60.4573 98.4189 58.4531V50.6457H100.812ZM125.275 60.8462V63.5085C124.672 63.8676 123.994 64.1363 123.236 64.3162C122.484 64.4954 121.666 64.5849 120.788 64.5849C118.724 64.5849 117.064 63.9322 115.803 62.6211C114.542 61.31 113.909 59.5896 113.909 57.456C113.909 55.3123 114.561 53.562 115.868 52.2062C117.174 50.8452 118.844 50.1672 120.878 50.1672C121.616 50.1672 122.339 50.2469 123.047 50.4015C123.755 50.5561 124.418 50.7855 125.041 51.0898V53.5476C124.458 53.1685 123.854 52.8794 123.231 52.6798C122.608 52.4803 121.975 52.3805 121.332 52.3805C119.831 52.3805 118.625 52.8495 117.722 53.7914C116.815 54.7291 116.361 55.9805 116.361 57.5357C116.361 58.9115 116.815 60.0586 117.727 60.9857C118.64 61.9079 119.781 62.3713 121.153 62.3713C121.846 62.3713 122.524 62.2469 123.187 62.0028C123.849 61.7586 124.543 61.375 125.275 60.8462ZM138.681 57.4662C138.681 55.9555 138.268 54.7389 137.444 53.8212C136.622 52.899 135.55 52.4406 134.224 52.4406C132.853 52.4406 131.781 52.8643 131.013 53.712C130.241 54.5594 129.857 55.7408 129.857 57.2617C129.857 58.8767 130.246 60.1236 131.018 60.9955C131.791 61.8731 132.893 62.3116 134.314 62.3116C135.675 62.3116 136.747 61.8879 137.519 61.0356C138.292 60.1833 138.681 58.9916 138.681 57.4662ZM140.895 50.6457V64.0169H138.681V61.5942C138.147 62.5659 137.46 63.309 136.627 63.8173C135.795 64.331 134.862 64.5849 133.83 64.5849C131.916 64.5849 130.365 63.9273 129.194 62.606C128.022 61.2847 127.434 59.54 127.434 57.3664C127.434 55.1675 128.002 53.418 129.144 52.1167C130.281 50.8154 131.806 50.1672 133.716 50.1672C134.832 50.1672 135.804 50.4166 136.627 50.9201C137.45 51.4235 138.118 52.1764 138.621 53.1685V50.6457H140.895ZM155.727 60.8462V63.5085C155.124 63.8676 154.445 64.1363 153.687 64.3162C152.935 64.4954 152.117 64.5849 151.24 64.5849C149.175 64.5849 147.515 63.9322 146.254 62.6211C144.993 61.31 144.36 59.5896 144.36 57.456C144.36 55.3123 145.013 53.562 146.319 52.2062C147.625 50.8452 149.295 50.1672 151.329 50.1672C152.067 50.1672 152.79 50.2469 153.498 50.4015C154.206 50.5561 154.869 50.7855 155.492 51.0898V53.5476C154.909 53.1685 154.306 52.8794 153.683 52.6798C153.059 52.4803 152.426 52.3805 151.783 52.3805C150.282 52.3805 149.076 52.8495 148.174 53.7914C147.266 54.7291 146.812 55.9805 146.812 57.5357C146.812 58.9115 147.266 60.0586 148.178 60.9857C149.091 61.9079 150.232 62.3713 151.604 62.3713C152.296 62.3713 152.974 62.2469 153.637 62.0028C154.3 61.7586 154.994 61.375 155.727 60.8462ZM147.171 70.2388V68.7727C147.939 68.9473 148.637 69.0871 149.26 69.1869C149.878 69.2912 150.382 69.3415 150.761 69.3415C151.344 69.3415 151.783 69.2417 152.082 69.0422C152.376 68.8426 152.526 68.544 152.526 68.1449C152.526 67.7159 152.366 67.3969 152.052 67.1928C151.738 66.988 151.245 66.8882 150.577 66.8882C150.382 66.8882 150.232 66.8882 150.123 66.8935C150.018 66.8984 149.908 66.9037 149.804 66.9037V64.0169H150.91V65.5124H151.334C152.396 65.5124 153.204 65.7366 153.757 66.1852C154.311 66.6289 154.589 67.2873 154.589 68.1547C154.589 69.0372 154.281 69.7153 153.657 70.1889C153.034 70.6621 152.127 70.8967 150.94 70.8967C150.452 70.8967 149.888 70.842 149.251 70.7271C148.617 70.6178 147.919 70.4531 147.171 70.2388ZM169.132 57.4662C169.132 55.9555 168.718 54.7389 167.896 53.8212C167.073 52.899 166.001 52.4406 164.675 52.4406C163.304 52.4406 162.232 52.8643 161.464 53.712C160.692 54.5594 160.308 55.7408 160.308 57.2617C160.308 58.8767 160.697 60.1236 161.469 60.9955C162.242 61.8731 163.344 62.3116 164.765 62.3116C166.126 62.3116 167.198 61.8879 167.971 61.0356C168.743 60.1833 169.132 58.9916 169.132 57.4662ZM171.346 50.6457V64.0169H169.132V61.5942C168.598 62.5659 167.911 63.309 167.078 63.8173C166.246 64.331 165.313 64.5849 164.281 64.5849C162.367 64.5849 160.816 63.9273 159.645 62.606C158.473 61.2847 157.885 59.54 157.885 57.3664C157.885 55.1675 158.453 53.418 159.595 52.1167C160.732 50.8154 162.257 50.1672 164.167 50.1672C165.283 50.1672 166.256 50.4166 167.078 50.9201C167.901 51.4235 168.568 52.1764 169.073 53.1685V50.6457H171.346ZM169.371 44.4839C169.177 45.4809 168.833 46.2387 168.344 46.7573C167.851 47.2808 167.233 47.5397 166.495 47.5397C166.37 47.5397 166.221 47.5249 166.056 47.5004C165.892 47.4701 165.717 47.4304 165.533 47.3801L164.132 47.0015C164.002 46.9618 163.878 46.9315 163.758 46.9066C163.638 46.8817 163.523 46.8665 163.414 46.8665C163.115 46.8665 162.856 46.9569 162.636 47.1258C162.416 47.2955 162.237 47.5397 162.102 47.864H160.816C160.991 46.8972 161.325 46.159 161.808 45.6405C162.297 45.1219 162.905 44.8626 163.633 44.8626C163.798 44.8626 163.957 44.8728 164.102 44.8925C164.246 44.9129 164.376 44.9428 164.495 44.9821L165.927 45.4061C166.151 45.4658 166.315 45.5006 166.42 45.521C166.53 45.5407 166.624 45.5509 166.714 45.5509C167.033 45.5509 167.313 45.4658 167.542 45.2867C167.766 45.1117 167.951 44.843 168.085 44.4839H169.371ZM177.264 57.3759C177.264 58.7868 177.737 59.9838 178.679 60.9604C179.627 61.9431 180.774 62.4317 182.115 62.4317C183.451 62.4317 184.587 61.9431 185.525 60.9604C186.457 59.9838 186.925 58.7868 186.925 57.3759C186.925 55.965 186.457 54.7688 185.525 53.7914C184.587 52.8095 183.451 52.3208 182.115 52.3208C180.763 52.3208 179.617 52.8095 178.675 53.7914C177.732 54.7688 177.264 55.965 177.264 57.3759ZM174.841 57.3664C174.841 56.3841 175.02 55.4566 175.379 54.5847C175.743 53.7169 176.266 52.9391 176.96 52.2561C177.653 51.5736 178.435 51.0546 179.312 50.7009C180.19 50.3467 181.122 50.1672 182.119 50.1672C183.092 50.1672 184.014 50.3467 184.886 50.7058C185.759 51.0694 186.546 51.5932 187.259 52.286C187.952 52.9591 188.476 53.7268 188.84 54.5995C189.199 55.4718 189.378 56.394 189.378 57.3664C189.378 58.3434 189.199 59.2611 188.84 60.1236C188.476 60.9857 187.952 61.7537 187.259 62.4216C186.546 63.1245 185.754 63.6578 184.871 64.032C183.989 64.4009 183.072 64.5849 182.119 64.5849C181.132 64.5849 180.2 64.4009 179.317 64.0365C178.435 63.6729 177.653 63.1495 176.96 62.4661C176.266 61.7632 175.743 60.9857 175.379 60.1281C175.02 59.2705 174.841 58.3537 174.841 57.3664ZM204.569 61.6241H206.189C208.817 61.6241 210.636 61.5092 211.648 61.2798C212.66 61.0507 213.502 60.6618 214.176 60.1032C215.053 59.3753 215.721 58.433 216.175 57.2814C216.634 56.1245 216.863 54.8039 216.863 53.3129C216.863 51.8173 216.638 50.5013 216.185 49.3648C215.731 48.2328 215.063 47.2955 214.176 46.5528C213.502 45.9897 212.65 45.5906 211.613 45.3513C210.576 45.1117 208.772 44.9923 206.189 44.9923H204.569V61.6241ZM201.996 64.0169V42.6293H206.104C209.141 42.6293 211.279 42.7839 212.521 43.0878C213.762 43.3969 214.854 43.9106 215.786 44.6283C217.013 45.5758 217.945 46.7819 218.578 48.2529C219.211 49.7235 219.525 51.4186 219.525 53.3378C219.525 55.2476 219.211 56.9326 218.583 58.3979C217.955 59.8643 217.022 61.0704 215.786 62.0175C214.849 62.7356 213.787 63.2493 212.595 63.558C211.399 63.8623 209.544 64.0169 207.022 64.0169H206.104H201.996ZM223.03 44.205C223.03 43.7511 223.195 43.3572 223.519 43.028C223.848 42.7038 224.247 42.5397 224.716 42.5397C225.169 42.5397 225.563 42.7038 225.892 43.0379C226.216 43.3671 226.38 43.7658 226.38 44.2348C226.38 44.6929 226.221 45.0871 225.897 45.4061C225.578 45.73 225.179 45.8899 224.716 45.8899C224.247 45.8899 223.848 45.73 223.519 45.4061C223.195 45.0871 223.03 44.6835 223.03 44.205ZM223.568 64.0169V50.6457H225.872V64.0169H223.568ZM240.923 57.3759C240.923 55.8754 240.514 54.6694 239.696 53.7521C238.874 52.8393 237.802 52.3805 236.466 52.3805C235.095 52.3805 234.023 52.8045 233.25 53.6523C232.483 54.4997 232.098 55.6811 232.098 57.202C232.098 58.817 232.487 60.0631 233.26 60.9358C234.033 61.8134 235.13 62.2518 236.556 62.2518C237.917 62.2518 238.989 61.8229 239.761 60.9604C240.534 60.0983 240.923 58.9021 240.923 57.3759ZM243.137 50.6457V63.7826C243.137 65.2331 243.037 66.2653 242.843 66.8833C242.648 67.4967 242.329 68.0451 241.88 68.5338C241.257 69.2069 240.494 69.71 239.592 70.0392C238.695 70.3737 237.658 70.5377 236.491 70.5377C234.461 70.5377 232.887 70.0743 231.75 69.1468C230.613 68.2197 230.025 66.9086 229.975 65.2135H232.548V65.3877C232.548 66.395 232.891 67.1679 233.585 67.7159C234.277 68.2598 235.255 68.5338 236.521 68.5338C237.439 68.5338 238.221 68.3841 238.869 68.0901C239.517 67.7907 240.011 67.347 240.35 66.7638C240.554 66.435 240.704 66.0461 240.788 65.6069C240.878 65.1685 240.923 64.5404 240.923 63.7225V62.6706V61.4793C240.405 62.4317 239.726 63.1593 238.894 63.6729C238.056 64.1813 237.114 64.4357 236.072 64.4357C234.153 64.4357 232.607 63.7825 231.436 62.4763C230.264 61.1754 229.676 59.4403 229.676 57.2814C229.676 55.0976 230.244 53.3681 231.386 52.0868C232.523 50.8055 234.048 50.1672 235.958 50.1672C237.064 50.1672 238.041 50.4166 238.879 50.9201C239.717 51.4235 240.375 52.1666 240.864 53.1386V50.6457H243.137ZM247.349 44.205C247.349 43.7511 247.514 43.3572 247.838 43.028C248.167 42.7038 248.566 42.5397 249.035 42.5397C249.488 42.5397 249.882 42.7038 250.211 43.0379C250.535 43.3671 250.7 43.7658 250.7 44.2348C250.7 44.6929 250.54 45.0871 250.216 45.4061C249.897 45.73 249.498 45.8899 249.035 45.8899C248.566 45.8899 248.167 45.73 247.838 45.4061C247.514 45.0871 247.349 44.6835 247.349 44.205ZM247.887 64.0169V50.6457H250.191V64.0169H247.887ZM255.371 52.5305H252.918V50.6457H255.371V45.2617H257.704V50.6457H260.157V52.5305H257.704V64.0169H255.371V52.5305ZM272.985 57.4662C272.985 55.9555 272.571 54.7389 271.748 53.8212C270.926 52.899 269.853 52.4406 268.527 52.4406C267.157 52.4406 266.085 52.8643 265.317 53.712C264.544 54.5594 264.16 55.7408 264.16 57.2617C264.16 58.8767 264.549 60.1236 265.322 60.9955C266.095 61.8731 267.196 62.3116 268.617 62.3116C269.978 62.3116 271.05 61.8879 271.823 61.0356C272.596 60.1833 272.985 58.9916 272.985 57.4662ZM275.198 50.6457V64.0169H272.985V61.5942C272.451 62.5659 271.763 63.309 270.931 63.8173C270.098 64.331 269.166 64.5849 268.134 64.5849C266.219 64.5849 264.669 63.9273 263.497 62.606C262.326 61.2847 261.738 59.54 261.738 57.3664C261.738 55.1675 262.306 53.418 263.448 52.1167C264.584 50.8154 266.109 50.1672 268.019 50.1672C269.136 50.1672 270.108 50.4166 270.931 50.9201C271.753 51.4235 272.421 52.1764 272.925 53.1685V50.6457H275.198ZM279.89 64.0169V41.373H282.223V64.0169H279.89Z" fill="#674D8A" stroke="#6E4D8B" stroke-width="0.288" stroke-miterlimit="22.9256"/>
<path d="M22.6257 32.2666C21.0111 32.2666 15.1219 32.4639 13.9623 31.7386V29.2687V27.4885V24.3749V22.5483V20.7213V18.8939V17.0672L13.979 15.0017L15.555 15.0062H17.382H19.1622H20.9888C29.187 15.0062 20.9888 15.0062 29.187 15.0062H31.0144H32.8411H34.6681H36.4947H38.3221H40.1492C44.7953 13.5628 44.75 6.38626 38.3221 6.38626H36.4947H34.6681H32.8411H31.0144H29.187H27.3604H25.533H16.035H14.208H12.3813H10.5539H8.72729C8.11803 6.38626 7.50916 6.38626 6.90028 6.38626L0 0.015502H1.82702H3.65404H5.48107H7.3077H9.13511H25.1112H26.9386H28.7656H30.5458H32.3724H34.1998H36.0264H37.8535H39.6809H41.5075C55.4612 1.10363 56.1022 21.8702 40.1492 21.8453H38.3221H36.4947H34.6681H32.8411H31.0144H29.187H27.3604H25.533H23.7532L22.5815 21.9054V24.3749V27.4885V29.2687V31.0953L22.6257 32.2666ZM85.5658 30.9332H83.692H81.8653H79.9914H78.1644H76.337H74.4635H72.6368H70.763H68.9356H67.062H65.2346H63.3608H61.5341H59.7071H57.8332H56.0065L55.7722 29.3405V27.467V25.6403V23.8129V21.939V20.112V18.2381V16.4115V14.5376V12.7105V10.8367V9.01V7.18298V5.30909V3.48171V1.60818L56.0065 0.015502H57.8332H59.7071H61.5341H63.3608L64.0638 1.13954V3.01344V4.84045V6.71435V8.54099V10.4153V12.2419V14.0693V15.9432V17.7698V19.6434V21.4707V23.3446L65.2346 24.0004H67.062H68.9356H70.763H72.6368H74.4635H76.337H78.1644H79.9914H81.8653H83.692H85.5658H87.3929L88.0955 25.1717L87.6268 26.5769L86.9246 27.7013L86.4559 29.1065L85.8002 30.2774L85.5658 30.9332ZM138.46 30.9332H136.586H134.713H132.839H130.965L126.281 23.8518L124.875 23.9067H123.002H121.128H119.254H117.38H115.506H113.632H111.758H109.884H108.011H106.137C105.376 25.1743 103.177 30.2396 102.415 31.0012L100.047 30.9332H98.1732H96.2997H94.4258L93.0909 30.8436L93.7228 29.7626L110.821 0.015502C114.286 0.015502 118.394 0.015502 121.858 0.015502C126.001 7.76467 133.076 19.6188 137.758 27.4201L138.46 28.591L139.874 30.9509L138.46 30.9332ZM122.222 17.3428L121.362 15.7085L120.66 14.5376L119.957 13.3663L119.254 12.1954L118.551 11.0241L117.849 9.85324L117.146 8.68195L116.443 7.5103L115.917 6.86741L115.506 7.5103L114.804 8.68195L114.101 9.85324L113.398 11.0241L112.695 12.1954L111.993 13.3663L111.29 14.5376L110.587 15.7085L109.623 17.3371L110.821 17.3484H112.695H114.569H116.443H118.317H120.191L122.222 17.3428ZM161.685 30.9332H159.565H157.644H155.723H153.849L153.147 30.8791V27.8415V25.9211V24.0472V22.1265V20.2057L152.902 19.5375L152.631 18.8001L134.322 0.015502H137.687H139.561H141.482H143.402H145.276L146.494 0.71811L147.432 1.70153L148.369 2.63847L149.306 3.57542L150.289 4.55961L151.226 5.49656L152.163 6.43313L153.147 7.37008L154.084 8.35349L155.021 9.29122L155.958 10.2278L156.941 11.2116L158.112 11.9142C159.863 10.1632 168.109 1.36591 169.542 0.483772L170.948 0.015502H172.869H174.742H176.663H180.395C176.391 4.41298 164.152 16.1269 162.141 19.2688L161.673 20.7213V22.5952V24.5159V26.3898V28.3102V30.1837L161.685 30.9332ZM189.165 30.9804C187.551 30.9804 182.361 31.4834 181.202 30.7582V27.9825V26.2023V24.3749V22.5483V20.7213V18.8939V17.0672L181.389 15.4745L182.794 15.0062H184.621C189.175 15.0062 193.709 15.0062 198.254 15.0062H200.08H201.907H203.734H205.561C212.16 15.0062 211.372 7.62405 207.388 6.38626H205.561H203.734H201.907H200.08H198.254H196.426H194.6H192.773H190.992H189.165H187.338H185.511H183.685H181.857L181.202 6.34961V0.0476132L183.216 0.015502H185.043H186.87H188.697H190.524H192.35H194.178H196.005H197.785H199.612H201.439H203.266H205.093H206.92H208.747C221.531 2.8989 220.822 20.3996 207.388 21.8453H205.561H203.734H201.907H200.08H198.254H196.426H194.6H192.773H190.992L189.64 21.8748L189.821 24.3749V26.2023V27.9825V30.9804H189.165ZM256.642 6.48001H254.164H252.337H250.463H248.636H246.809H244.935H243.108H241.234H239.407H237.533H235.706H233.833H232.006H230.179H228.305H226.478H224.604L223.051 6.40933L223.011 4.37215V2.54476V0.0147269L224.135 0.015502H226.009H227.837H229.71H231.537H233.411H235.238H237.065H238.939H240.766H242.64H244.467H246.341H248.168H250.041H251.868H253.695H255.569L256.74 0.0305979V2.54476V4.37215L256.642 6.48001ZM256.506 30.9332H254.632H252.805C247.262 30.9332 241.718 30.9332 236.175 30.9332H234.301C229.887 30.9332 224.627 31.2049 223.48 27.0455L223.246 25.4056L223.011 23.8129V21.939V20.112V18.2381V16.4115C223.011 13.6259 222.879 12.429 226.009 12.0079H227.837H229.71H231.537H233.411H235.238H237.065H238.939H240.766H242.64H244.467H246.341H248.168H250.041H251.868H255.625L255.859 13.6475V15.4745L255.887 17.9996L254.734 18.0042H250.931H249.104H247.231H245.404H243.577H241.703H239.876H238.002H236.175H234.301H232.474L231.303 17.9792V20.581L231.391 23.9414L233.411 24.0004H235.238H237.065H238.939H240.766H242.64H244.467H246.341H248.168H250.041H251.868H253.695H256.802L256.74 24.7034V26.5769V28.4039V30.2774L256.506 30.9332ZM299.35 30.9804C296.066 30.9804 292.198 31.3931 288.988 30.9207C287.298 28.1813 283.403 23.2679 281.127 21.8453C278.098 21.8453 275.069 21.8453 272.039 21.8453L270.868 21.8192C270.868 25.4997 270.805 26.7727 270.855 30.9804H268.385H266.558H264.731L262.687 30.7193L262.67 28.4508V26.6237V24.7971V23.017V21.1895V19.3625V17.5359V15.7085L264.263 15.4745H266.09H267.917H269.744H271.571H273.397H275.225H277.052H278.832H280.659H282.486H284.313H286.14L287.732 15.2402C292.729 14.5058 293.212 8.16075 287.498 6.38626H285.671H283.844H282.017H280.237H278.41H276.584H274.756H272.929H271.102H269.275H267.448H265.668H263.841L262.315 6.36736L262.249 4.3249V2.49825V0L263.373 0.015502H265.2H267.027H268.854H270.634H272.46H274.288H276.115H277.942H279.769H281.596H283.423H285.25H287.03H288.857H290.684C301.581 2.53947 302.65 19.0012 292.277 21.1895L299.35 30.9804ZM325.982 30.9332H324.155H322.281H320.454H318.581L317.925 29.8091V27.9352V26.1086V24.2347V22.4077V20.581V18.7068V16.8798V15.0062V13.1789V11.3053V9.47831V7.60405L316.285 7.41695H314.458H312.584H310.757H308.883H307.056H305.182L304.058 6.71435V4.84045V3.01344V1.13954L304.761 0.015502H306.588H308.415H310.289H312.116H313.989H315.817H317.69H319.517H321.391H323.218H325.045H326.919H328.746H330.62H332.446H343.325H345.152H346.979L348.618 0.24984C347.66 2.49072 345.309 5.01883 343.708 6.94828L342.302 7.41695H340.475H338.601H332.915H331.089H329.215H327.388L326.216 8.07269V9.94695V11.7736V13.6475V15.4745V17.3484V19.175V21.0021V22.876V24.7034V26.5769V28.4039V30.2774L325.982 30.9332Z" fill="#6E4D8B"/>
<mask id="mask0_0_68" style="mask-type:luminance" maskUnits="userSpaceOnUse" x="0" y="0" width="349" height="33">
<path d="M22.6257 32.2666C21.0111 32.2666 15.1219 32.4639 13.9623 31.7386V29.2687V27.4885V24.3749V22.5483V20.7213V18.8939V17.0672L13.979 15.0017L15.555 15.0062H17.382H19.1622H20.9888C29.187 15.0062 20.9888 15.0062 29.187 15.0062H31.0144H32.8411H34.6681H36.4947H38.3221H40.1492C44.7953 13.5628 44.75 6.38626 38.3221 6.38626H36.4947H34.6681H32.8411H31.0144H29.187H27.3604H25.533H16.035H14.208H12.3813H10.5539H8.72729C8.11803 6.38626 7.50916 6.38626 6.90028 6.38626L0 0.015502H1.82702H3.65404H5.48107H7.3077H9.13511H25.1112H26.9386H28.7656H30.5458H32.3724H34.1998H36.0264H37.8535H39.6809H41.5075C55.4612 1.10363 56.1022 21.8702 40.1492 21.8453H38.3221H36.4947H34.6681H32.8411H31.0144H29.187H27.3604H25.533H23.7532L22.5815 21.9054V24.3749V27.4885V29.2687V31.0953L22.6257 32.2666ZM85.5658 30.9332H83.692H81.8653H79.9914H78.1644H76.337H74.4635H72.6368H70.763H68.9356H67.062H65.2346H63.3608H61.5341H59.7071H57.8332H56.0065L55.7722 29.3405V27.467V25.6403V23.8129V21.939V20.112V18.2381V16.4115V14.5376V12.7105V10.8367V9.01V7.18298V5.30909V3.48171V1.60818L56.0065 0.015502H57.8332H59.7071H61.5341H63.3608L64.0638 1.13954V3.01344V4.84045V6.71435V8.54099V10.4153V12.2419V14.0693V15.9432V17.7698V19.6434V21.4707V23.3446L65.2346 24.0004H67.062H68.9356H70.763H72.6368H74.4635H76.337H78.1644H79.9914H81.8653H83.692H85.5658H87.3929L88.0955 25.1717L87.6268 26.5769L86.9246 27.7013L86.4559 29.1065L85.8002 30.2774L85.5658 30.9332ZM138.46 30.9332H136.586H134.713H132.839H130.965L126.281 23.8518L124.875 23.9067H123.002H121.128H119.254H117.38H115.506H113.632H111.758H109.884H108.011H106.137C105.376 25.1743 103.177 30.2396 102.415 31.0012L100.047 30.9332H98.1732H96.2997H94.4258L93.0909 30.8436L93.7228 29.7626L110.821 0.015502C114.286 0.015502 118.394 0.015502 121.858 0.015502C126.001 7.76467 133.076 19.6188 137.758 27.4201L138.46 28.591L139.874 30.9509L138.46 30.9332ZM122.222 17.3428L121.362 15.7085L120.66 14.5376L119.957 13.3663L119.254 12.1954L118.551 11.0241L117.849 9.85324L117.146 8.68195L116.443 7.5103L115.917 6.86741L115.506 7.5103L114.804 8.68195L114.101 9.85324L113.398 11.0241L112.695 12.1954L111.993 13.3663L111.29 14.5376L110.587 15.7085L109.623 17.3371L110.821 17.3484H112.695H114.569H116.443H118.317H120.191L122.222 17.3428ZM161.685 30.9332H159.565H157.644H155.723H153.849L153.147 30.8791V27.8415V25.9211V24.0472V22.1265V20.2057L152.902 19.5375L152.631 18.8001L134.322 0.015502H137.687H139.561H141.482H143.402H145.276L146.494 0.71811L147.432 1.70153L148.369 2.63847L149.306 3.57542L150.289 4.55961L151.226 5.49656L152.163 6.43313L153.147 7.37008L154.084 8.35349L155.021 9.29122L155.958 10.2278L156.941 11.2116L158.112 11.9142C159.863 10.1632 168.109 1.36591 169.542 0.483772L170.948 0.015502H172.869H174.742H176.663H180.395C176.391 4.41298 164.152 16.1269 162.141 19.2688L161.673 20.7213V22.5952V24.5159V26.3898V28.3102V30.1837L161.685 30.9332ZM189.165 30.9804C187.551 30.9804 182.361 31.4834 181.202 30.7582V27.9825V26.2023V24.3749V22.5483V20.7213V18.8939V17.0672L181.389 15.4745L182.794 15.0062H184.621C189.175 15.0062 193.709 15.0062 198.254 15.0062H200.08H201.907H203.734H205.561C212.16 15.0062 211.372 7.62405 207.388 6.38626H205.561H203.734H201.907H200.08H198.254H196.426H194.6H192.773H190.992H189.165H187.338H185.511H183.685H181.857L181.202 6.34961V0.0476132L183.216 0.015502H185.043H186.87H188.697H190.524H192.35H194.178H196.005H197.785H199.612H201.439H203.266H205.093H206.92H208.747C221.531 2.8989 220.822 20.3996 207.388 21.8453H205.561H203.734H201.907H200.08H198.254H196.426H194.6H192.773H190.992L189.64 21.8748L189.821 24.3749V26.2023V27.9825V30.9804H189.165ZM256.642 6.48001H254.164H252.337H250.463H248.636H246.809H244.935H243.108H241.234H239.407H237.533H235.706H233.833H232.006H230.179H228.305H226.478H224.604L223.051 6.40933L223.011 4.37215V2.54476V0.0147269L224.135 0.015502H226.009H227.837H229.71H231.537H233.411H235.238H237.065H238.939H240.766H242.64H244.467H246.341H248.168H250.041H251.868H253.695H255.569L256.74 0.0305979V2.54476V4.37215L256.642 6.48001ZM256.506 30.9332H254.632H252.805C247.262 30.9332 241.718 30.9332 236.175 30.9332H234.301C229.887 30.9332 224.627 31.2049 223.48 27.0455L223.246 25.4056L223.011 23.8129V21.939V20.112V18.2381V16.4115C223.011 13.6259 222.879 12.429 226.009 12.0079H227.837H229.71H231.537H233.411H235.238H237.065H238.939H240.766H242.64H244.467H246.341H248.168H250.041H251.868H255.625L255.859 13.6475V15.4745L255.887 17.9996L254.734 18.0042H250.931H249.104H247.231H245.404H243.577H241.703H239.876H238.002H236.175H234.301H232.474L231.303 17.9792V20.581L231.391 23.9414L233.411 24.0004H235.238H237.065H238.939H240.766H242.64H244.467H246.341H248.168H250.041H251.868H253.695H256.802L256.74 24.7034V26.5769V28.4039V30.2774L256.506 30.9332ZM299.35 30.9804C296.066 30.9804 292.198 31.3931 288.988 30.9207C287.298 28.1813 283.403 23.2679 281.127 21.8453C278.098 21.8453 275.069 21.8453 272.039 21.8453L270.868 21.8192C270.868 25.4997 270.805 26.7727 270.855 30.9804H268.385H266.558H264.731L262.687 30.7193L262.67 28.4508V26.6237V24.7971V23.017V21.1895V19.3625V17.5359V15.7085L264.263 15.4745H266.09H267.917H269.744H271.571H273.397H275.225H277.052H278.832H280.659H282.486H284.313H286.14L287.732 15.2402C292.729 14.5058 293.212 8.16075 287.498 6.38626H285.671H283.844H282.017H280.237H278.41H276.584H274.756H272.929H271.102H269.275H267.448H265.668H263.841L262.315 6.36736L262.249 4.3249V2.49825V0L263.373 0.015502H265.2H267.027H268.854H270.634H272.46H274.288H276.115H277.942H279.769H281.596H283.423H285.25H287.03H288.857H290.684C301.581 2.53947 302.65 19.0012 292.277 21.1895L299.35 30.9804ZM325.982 30.9332H324.155H322.281H320.454H318.581L317.925 29.8091V27.9352V26.1086V24.2347V22.4077V20.581V18.7068V16.8798V15.0062V13.1789V11.3053V9.47831V7.60405L316.285 7.41695H314.458H312.584H310.757H308.883H307.056H305.182L304.058 6.71435V4.84045V3.01344V1.13954L304.761 0.015502H306.588H308.415H310.289H312.116H313.989H315.817H317.69H319.517H321.391H323.218H325.045H326.919H328.746H330.62H332.446H343.325H345.152H346.979L348.618 0.24984C347.66 2.49072 345.309 5.01883 343.708 6.94828L342.302 7.41695H340.475H338.601H332.915H331.089H329.215H327.388L326.216 8.07269V9.94695V11.7736V13.6475V15.4745V17.3484V19.175V21.0021V22.876V24.7034V26.5769V28.4039V30.2774L325.982 30.9332Z" fill="white"/>
</mask>
<g mask="url(#mask0_0_68)">
<path d="M355.561 12.8221H12.6659V40.543H355.561V12.8221Z" fill="#3B2C4B"/>
</g>
</svg>
