<svg width="349" height="33" viewBox="0 0 349 33" fill="none" xmlns="http://www.w3.org/2000/svg">
<path d="M22.6258 32.2666C21.0111 32.2666 15.1219 32.4639 13.9623 31.7386V29.2686V27.4885V24.3749V22.5483V20.7213V18.8938V17.0672L13.979 15.0017L15.555 15.0062H17.382H19.1622H20.9888C29.187 15.0062 20.9888 15.0062 29.187 15.0062H31.0144H32.8411H34.6681H36.4947H38.3221H40.1492C44.7953 13.5628 44.75 6.38626 38.3221 6.38626H36.4947H34.6681H32.8411H31.0144H29.187H27.3604H25.533H16.035H14.208H12.3813H10.5539H8.72729C8.11803 6.38626 7.50916 6.38626 6.90028 6.38626L0 0.015096H1.82702H3.65404H5.48107H7.3077H9.13511H25.1112H26.9386H28.7656H30.5458H32.3724H34.1998H36.0264H37.8535H39.6809H41.5075C55.4612 1.1036 56.1022 21.8702 40.1492 21.8453H38.3221H36.4947H34.6681H32.8411H31.0144H29.187H27.3604H25.533H23.7532L22.5815 21.905V24.3749V27.4885V29.2686V31.0953L22.6258 32.2666ZM85.5658 30.9331H83.692H81.8653H79.9914H78.1644H76.337H74.4635H72.6368H70.763H68.9356H67.062H65.2346H63.3608H61.5341H59.7071H57.8332H56.0065L55.7722 29.3405V27.4669V25.6399V23.8129V21.939V20.112V18.2381V16.4115V14.5376V12.7105V10.8367V9.01V7.18262V5.30909V3.48171V1.60818L56.0065 0.015096H57.8332H59.7071H61.5341H63.3608L64.0637 1.13951V3.0134V4.84045V6.71431V8.54096V10.4153V12.2419V14.0693V15.9432V17.7698V19.6433V21.4707V23.3446L65.2346 24.0004H67.062H68.9356H70.763H72.6368H74.4635H76.337H78.1644H79.9914H81.8653H83.692H85.5658H87.3929L88.0955 25.1717L87.6268 26.5769L86.9246 27.7013L86.4559 29.1065L85.8002 30.2774L85.5658 30.9331ZM138.46 30.9331H136.586H134.713H132.839H130.965L126.281 23.8518L124.875 23.9067H123.002H121.128H119.254H117.38H115.506H113.632H111.758H109.884H108.011H106.137C105.376 25.1743 103.177 30.2396 102.415 31.0012L100.047 30.9331H98.1732H96.2997H94.4258L93.0909 30.8436L93.7228 29.7623L110.821 0.015096C114.286 0.015096 118.394 0.015096 121.858 0.015096C126.001 7.76464 133.076 19.6188 137.758 27.4201L138.46 28.591L139.874 30.9509L138.46 30.9331ZM122.222 17.3427L121.362 15.7085L120.66 14.5376L119.957 13.3663L119.254 12.1954L118.551 11.0241L117.849 9.85324L117.146 8.68195L116.443 7.5103L115.917 6.86741L115.506 7.5103L114.804 8.68195L114.101 9.85324L113.398 11.0241L112.695 12.1954L111.993 13.3663L111.29 14.5376L110.587 15.7085L109.623 17.3371L110.821 17.3484H112.695H114.569H116.443H118.317H120.191L122.222 17.3427ZM161.685 30.9331H159.565H157.644H155.723H153.849L153.147 30.8791V27.8415V25.9211V24.0472V22.1265V20.2057L152.902 19.5375L152.631 18.8001L134.322 0.015096H137.687H139.561H141.482H143.402H145.276L146.494 0.71811L147.432 1.70153L148.369 2.63847L149.306 3.57542L150.289 4.55961L151.226 5.49619L152.163 6.43313L153.147 7.37008L154.084 8.35349L155.021 9.29122L155.958 10.2278L156.941 11.2116L158.112 11.9142C159.863 10.1631 168.109 1.36591 169.542 0.483772L170.948 0.015096H172.869H174.742H176.663H180.395C176.391 4.41295 164.152 16.1269 162.141 19.2688L161.673 20.7213V22.5948V24.5159V26.3898V28.3102V30.1837L161.685 30.9331ZM189.165 30.9804C187.551 30.9804 182.361 31.4835 181.202 30.7582V27.9825V26.2023V24.3749V22.5483V20.7213V18.8938V17.0672L181.389 15.4745L182.794 15.0062H184.621C189.175 15.0062 193.709 15.0062 198.254 15.0062H200.08H201.907H203.734H205.561C212.16 15.0062 211.372 7.62405 207.388 6.38626H205.561H203.734H201.907H200.08H198.254H196.426H194.6H192.773H190.992H189.165H187.338H185.511H183.685H181.857L181.202 6.34961V0.0476132L183.216 0.015096H185.043H186.87H188.697H190.524H192.35H194.178H196.005H197.785H199.612H201.439H203.266H205.093H206.92H208.747C221.531 2.89888 220.822 20.3996 207.388 21.8453H205.561H203.734H201.907H200.08H198.254H196.426H194.6H192.773H190.992L189.64 21.8748L189.821 24.3749V26.2023V27.9825V30.9804H189.165ZM256.642 6.48001H254.164H252.337H250.463H248.636H246.809H244.935H243.108H241.234H239.407H237.533H235.706H233.833H232.006H230.179H228.305H226.478H224.604L223.051 6.40933L223.011 4.37215V2.54476V0.0147269L224.135 0.015096H226.009H227.837H229.71H231.537H233.411H235.238H237.065H238.939H240.766H242.64H244.467H246.341H248.168H250.041H251.868H253.695H255.569L256.74 0.0305979V2.54476V4.37215L256.642 6.48001ZM256.506 30.9331H254.632H252.805C247.262 30.9331 241.718 30.9331 236.175 30.9331H234.301C229.887 30.9331 224.627 31.2049 223.48 27.0455L223.246 25.4056L223.011 23.8129V21.939V20.112V18.2381V16.4115C223.011 13.6259 222.879 12.429 226.009 12.0079H227.837H229.71H231.537H233.411H235.238H237.065H238.939H240.766H242.64H244.467H246.341H248.168H250.041H251.868H255.625L255.859 13.6475V15.4745L255.887 17.9996L254.734 18.0041H250.931H249.104H247.231H245.404H243.577H241.703H239.876H238.002H236.175H234.301H232.474L231.303 17.9792V20.581L231.391 23.9414L233.411 24.0004H235.238H237.065H238.939H240.766H242.64H244.467H246.341H248.168H250.041H251.868H253.695H256.802L256.74 24.7033V26.5769V28.4035V30.2774L256.506 30.9331ZM299.35 30.9804C296.066 30.9804 292.198 31.3931 288.988 30.9207C287.298 28.1813 283.403 23.2679 281.127 21.8453C278.098 21.8453 275.069 21.8453 272.039 21.8453L270.868 21.8192C270.868 25.4997 270.805 26.7726 270.855 30.9804H268.385H266.558H264.731L262.687 30.7193L262.67 28.4508V26.6237V24.7967V23.017V21.1895V19.3625V17.5359V15.7085L264.263 15.4745H266.09H267.917H269.744H271.571H273.397H275.225H277.052H278.832H280.659H282.486H284.313H286.14L287.732 15.2402C292.729 14.5058 293.212 8.16075 287.498 6.38626H285.671H283.844H282.017H280.237H278.41H276.584H274.756H272.929H271.102H269.275H267.448H265.668H263.841L262.315 6.36736L262.249 4.3249V2.49825V0L263.373 0.015096H265.2H267.027H268.854H270.634H272.46H274.288H276.115H277.942H279.769H281.596H283.423H285.25H287.03H288.857H290.684C301.581 2.53944 302.65 19.0012 292.277 21.1895L299.35 30.9804ZM325.982 30.9331H324.155H322.281H320.454H318.581L317.925 29.8091V27.9353V26.1086V24.2347V22.4077V20.581V18.7068V16.8797V15.0062V13.1788V11.3049V9.47831V7.60401L316.285 7.41655H314.458H312.584H310.757H308.883H307.056H305.182L304.058 6.71431V4.84045V3.0134V1.13951L304.761 0.015096H306.588H308.415H310.289H312.116H313.989H315.817H317.69H319.517H321.391H323.218H325.045H326.919H328.746H330.62H332.446H343.325H345.152H346.979L348.618 0.249803C347.66 2.49069 345.309 5.01883 343.708 6.94828L342.302 7.41655H340.475H338.601H332.915H331.088H329.215H327.388L326.216 8.07269V9.94695V11.7736V13.6475V15.4745V17.3484V19.1751V21.0021V22.876V24.7033V26.5769V28.4035V30.2774L325.982 30.9331Z" fill="#6E4D8B"/>
<mask id="mask0_0_109" style="mask-type:luminance" maskUnits="userSpaceOnUse" x="0" y="0" width="349" height="33">
<path d="M22.6258 32.2666C21.0111 32.2666 15.1219 32.4639 13.9623 31.7386V29.2686V27.4885V24.3749V22.5483V20.7213V18.8938V17.0672L13.979 15.0017L15.555 15.0062H17.382H19.1622H20.9888C29.187 15.0062 20.9888 15.0062 29.187 15.0062H31.0144H32.8411H34.6681H36.4947H38.3221H40.1492C44.7953 13.5628 44.75 6.38626 38.3221 6.38626H36.4947H34.6681H32.8411H31.0144H29.187H27.3604H25.533H16.035H14.208H12.3813H10.5539H8.72729C8.11803 6.38626 7.50916 6.38626 6.90028 6.38626L0 0.015096H1.82702H3.65404H5.48107H7.3077H9.13511H25.1112H26.9386H28.7656H30.5458H32.3724H34.1998H36.0264H37.8535H39.6809H41.5075C55.4612 1.1036 56.1022 21.8702 40.1492 21.8453H38.3221H36.4947H34.6681H32.8411H31.0144H29.187H27.3604H25.533H23.7532L22.5815 21.905V24.3749V27.4885V29.2686V31.0953L22.6258 32.2666ZM85.5658 30.9331H83.692H81.8653H79.9914H78.1644H76.337H74.4635H72.6368H70.763H68.9356H67.062H65.2346H63.3608H61.5341H59.7071H57.8332H56.0065L55.7722 29.3405V27.4669V25.6399V23.8129V21.939V20.112V18.2381V16.4115V14.5376V12.7105V10.8367V9.01V7.18262V5.30909V3.48171V1.60818L56.0065 0.015096H57.8332H59.7071H61.5341H63.3608L64.0637 1.13951V3.0134V4.84045V6.71431V8.54096V10.4153V12.2419V14.0693V15.9432V17.7698V19.6433V21.4707V23.3446L65.2346 24.0004H67.062H68.9356H70.763H72.6368H74.4635H76.337H78.1644H79.9914H81.8653H83.692H85.5658H87.3929L88.0955 25.1717L87.6268 26.5769L86.9246 27.7013L86.4559 29.1065L85.8002 30.2774L85.5658 30.9331ZM138.46 30.9331H136.586H134.713H132.839H130.965L126.281 23.8518L124.875 23.9067H123.002H121.128H119.254H117.38H115.506H113.632H111.758H109.884H108.011H106.137C105.376 25.1743 103.177 30.2396 102.415 31.0012L100.047 30.9331H98.1732H96.2997H94.4258L93.0909 30.8436L93.7228 29.7623L110.821 0.015096C114.286 0.015096 118.394 0.015096 121.858 0.015096C126.001 7.76464 133.076 19.6188 137.758 27.4201L138.46 28.591L139.874 30.9509L138.46 30.9331ZM122.222 17.3427L121.362 15.7085L120.66 14.5376L119.957 13.3663L119.254 12.1954L118.551 11.0241L117.849 9.85324L117.146 8.68195L116.443 7.5103L115.917 6.86741L115.506 7.5103L114.804 8.68195L114.101 9.85324L113.398 11.0241L112.695 12.1954L111.993 13.3663L111.29 14.5376L110.587 15.7085L109.623 17.3371L110.821 17.3484H112.695H114.569H116.443H118.317H120.191L122.222 17.3427ZM161.685 30.9331H159.565H157.644H155.723H153.849L153.147 30.8791V27.8415V25.9211V24.0472V22.1265V20.2057L152.902 19.5375L152.631 18.8001L134.322 0.015096H137.687H139.561H141.482H143.402H145.276L146.494 0.71811L147.432 1.70153L148.369 2.63847L149.306 3.57542L150.289 4.55961L151.226 5.49619L152.163 6.43313L153.147 7.37008L154.084 8.35349L155.021 9.29122L155.958 10.2278L156.941 11.2116L158.112 11.9142C159.863 10.1631 168.109 1.36591 169.542 0.483772L170.948 0.015096H172.869H174.742H176.663H180.395C176.391 4.41295 164.152 16.1269 162.141 19.2688L161.673 20.7213V22.5948V24.5159V26.3898V28.3102V30.1837L161.685 30.9331ZM189.165 30.9804C187.551 30.9804 182.361 31.4835 181.202 30.7582V27.9825V26.2023V24.3749V22.5483V20.7213V18.8938V17.0672L181.389 15.4745L182.794 15.0062H184.621C189.175 15.0062 193.709 15.0062 198.254 15.0062H200.08H201.907H203.734H205.561C212.16 15.0062 211.372 7.62405 207.388 6.38626H205.561H203.734H201.907H200.08H198.254H196.426H194.6H192.773H190.992H189.165H187.338H185.511H183.685H181.857L181.202 6.34961V0.0476132L183.216 0.015096H185.043H186.87H188.697H190.524H192.35H194.178H196.005H197.785H199.612H201.439H203.266H205.093H206.92H208.747C221.531 2.89888 220.822 20.3996 207.388 21.8453H205.561H203.734H201.907H200.08H198.254H196.426H194.6H192.773H190.992L189.64 21.8748L189.821 24.3749V26.2023V27.9825V30.9804H189.165ZM256.642 6.48001H254.164H252.337H250.463H248.636H246.809H244.935H243.108H241.234H239.407H237.533H235.706H233.833H232.006H230.179H228.305H226.478H224.604L223.051 6.40933L223.011 4.37215V2.54476V0.0147269L224.135 0.015096H226.009H227.837H229.71H231.537H233.411H235.238H237.065H238.939H240.766H242.64H244.467H246.341H248.168H250.041H251.868H253.695H255.569L256.74 0.0305979V2.54476V4.37215L256.642 6.48001ZM256.506 30.9331H254.632H252.805C247.262 30.9331 241.718 30.9331 236.175 30.9331H234.301C229.887 30.9331 224.627 31.2049 223.48 27.0455L223.246 25.4056L223.011 23.8129V21.939V20.112V18.2381V16.4115C223.011 13.6259 222.879 12.429 226.009 12.0079H227.837H229.71H231.537H233.411H235.238H237.065H238.939H240.766H242.64H244.467H246.341H248.168H250.041H251.868H255.625L255.859 13.6475V15.4745L255.887 17.9996L254.734 18.0041H250.931H249.104H247.231H245.404H243.577H241.703H239.876H238.002H236.175H234.301H232.474L231.303 17.9792V20.581L231.391 23.9414L233.411 24.0004H235.238H237.065H238.939H240.766H242.64H244.467H246.341H248.168H250.041H251.868H253.695H256.802L256.74 24.7033V26.5769V28.4035V30.2774L256.506 30.9331ZM299.35 30.9804C296.066 30.9804 292.198 31.3931 288.988 30.9207C287.298 28.1813 283.403 23.2679 281.127 21.8453C278.098 21.8453 275.069 21.8453 272.039 21.8453L270.868 21.8192C270.868 25.4997 270.805 26.7726 270.855 30.9804H268.385H266.558H264.731L262.687 30.7193L262.67 28.4508V26.6237V24.7967V23.017V21.1895V19.3625V17.5359V15.7085L264.263 15.4745H266.09H267.917H269.744H271.571H273.397H275.225H277.052H278.832H280.659H282.486H284.313H286.14L287.732 15.2402C292.729 14.5058 293.212 8.16075 287.498 6.38626H285.671H283.844H282.017H280.237H278.41H276.584H274.756H272.929H271.102H269.275H267.448H265.668H263.841L262.315 6.36736L262.249 4.3249V2.49825V0L263.373 0.015096H265.2H267.027H268.854H270.634H272.46H274.288H276.115H277.942H279.769H281.596H283.423H285.25H287.03H288.857H290.684C301.581 2.53944 302.65 19.0012 292.277 21.1895L299.35 30.9804ZM325.982 30.9331H324.155H322.281H320.454H318.581L317.925 29.8091V27.9353V26.1086V24.2347V22.4077V20.581V18.7068V16.8797V15.0062V13.1788V11.3049V9.47831V7.60401L316.285 7.41655H314.458H312.584H310.757H308.883H307.056H305.182L304.058 6.71431V4.84045V3.0134V1.13951L304.761 0.015096H306.588H308.415H310.289H312.116H313.989H315.817H317.69H319.517H321.391H323.218H325.045H326.919H328.746H330.62H332.446H343.325H345.152H346.979L348.618 0.249803C347.66 2.49069 345.309 5.01883 343.708 6.94828L342.302 7.41655H340.475H338.601H332.915H331.088H329.215H327.388L326.216 8.07269V9.94695V11.7736V13.6475V15.4745V17.3484V19.1751V21.0021V22.876V24.7033V26.5769V28.4035V30.2774L325.982 30.9331Z" fill="white"/>
</mask>
<g mask="url(#mask0_0_109)">
<path d="M355.561 12.822H12.6659V40.5429H355.561V12.822Z" fill="#3B2C4B"/>
</g>
</svg>
